<svg width="1440" height="1024" viewBox="0 0 1440 1024" fill="none" xmlns="http://www.w3.org/2000/svg">
<rect width="1440" height="1024" fill="#F4F1DE"/>
<circle cx="52.5" cy="349.5" r="7.5" fill="#3D405B"/>
<circle cx="73.5" cy="349.5" r="7.5" fill="#09BC8A"/>
<circle cx="52.5" cy="374.5" r="7.5" fill="#09BC8A"/>
<circle cx="52.5" cy="399.5" r="7.5" fill="#3D405B"/>
<circle cx="1364.85" cy="148.348" r="7.5" transform="rotate(179.187 1364.85 148.348)" fill="#3D405B"/>
<circle cx="1343.86" cy="148.647" r="7.5" transform="rotate(179.187 1343.86 148.647)" fill="#09BC8A"/>
<circle cx="1364.5" cy="123.351" r="7.5" transform="rotate(179.187 1364.5 123.351)" fill="#09BC8A"/>
<circle cx="1364.14" cy="98.3536" r="7.5" transform="rotate(179.187 1364.14 98.3536)" fill="#3D405B"/>
<path d="M217.986 698.035L222.645 693.566C229.252 687.226 231.244 677.457 227.646 669.035V669.035" stroke="#09BC8A" stroke-width="2"/>
<path d="M214.355 677.935L219.651 681.626C227.163 686.863 237.133 686.902 244.686 681.723V681.723" stroke="#3D405B" stroke-width="2"/>
<path d="M1375.99 535.035L1380.64 530.566C1387.25 524.226 1389.24 514.457 1385.65 506.035V506.035" stroke="#09BC8A" stroke-width="2"/>
<path d="M1372.36 514.935L1377.65 518.626C1385.16 523.863 1395.13 523.902 1402.69 518.723V518.723" stroke="#3D405B" stroke-width="2"/>
<path d="M239.986 265.035L244.645 260.566C251.252 254.226 253.244 244.457 249.646 236.035V236.035" stroke="#09BC8A" stroke-width="2"/>
<path d="M236.355 244.935L241.651 248.626C249.163 253.863 259.133 253.902 266.686 248.723V248.723" stroke="#3D405B" stroke-width="2"/>
<path d="M1137.63 235.071L1142.29 230.601C1148.9 224.261 1150.89 214.492 1147.29 206.071V206.071" stroke="#09BC8A" stroke-width="2"/>
<path d="M1134 214.97L1139.3 218.662C1146.81 223.899 1156.78 223.937 1164.33 218.759V218.759" stroke="#3D405B" stroke-width="2"/>
</svg>
